nColumns=28
nRows=26
DataType=double
version=3
OpenSimVersion=4.1
endheader
time	ground_force_1_vx	ground_force_1_vy	ground_force_1_vz	ground_force_1_px	ground_force_1_py	ground_force_1_pz	ground_force_1_mx	ground_force_1_my	ground_force_1_mz	ground_force_2_vx	ground_force_2_vy	ground_force_2_vz	ground_force_2_px	ground_force_2_py	ground_force_2_pz	ground_force_2_mx	ground_force_2_my	ground_force_2_mz	ground_force_3_vx	ground_force_3_vy	ground_force_3_vz	ground_force_3_px	ground_force_3_py	ground_force_3_pz	ground_force_3_mx	ground_force_3_my	ground_force_3_mz
9.9	2.79599	275.606	-36.8826	-0.258965	0.006	-0.408874	0	-1.09027	0	1.93015	203.184	32.3326	-0.254532	0.006	-0.76186	0	0.996813	0	0	0	0	0	0	0	0	0	0
9.91	2.78045	268.501	-35.9683	-0.259192	0.006	-0.408826	0	-1.00531	0	1.75418	198.801	31.6748	-0.254106	0.006	-0.762163	0	0.947324	0	0	0	0	0	0	0	0	0	0
9.92	2.72886	261.938	-35.0711	-0.259394	0.006	-0.408786	0	-0.922496	0	1.59709	195.339	31.1353	-0.253743	0.006	-0.762446	0	0.897576	0	0	0	0	0	0	0	0	0	0
9.93	2.63162	255.985	-34.1982	-0.259567	0.006	-0.408757	0	-0.842385	0	1.45338	192.822	30.7286	-0.25345	0.006	-0.762709	0	0.847916	0	0	0	0	0	0	0	0	0	0
9.94	2.48515	250.688	-33.353	-0.259712	0.006	-0.408745	0	-0.765464	0	1.319	191.248	30.465	-0.253226	0.006	-0.762953	0	0.79868	0	0	0	0	0	0	0	0	0	0
9.95	2.29325	246.068	-32.5353	-0.259833	0.006	-0.408752	0	-0.691999	0	1.19179	190.599	30.3498	-0.253068	0.006	-0.763178	0	0.75031	0	0	0	0	0	0	0	0	0	0
9.96	2.06522	242.124	-31.7417	-0.259936	0.006	-0.408779	0	-0.622037	0	1.07177	190.837	30.3816	-0.252968	0.006	-0.763387	0	0.703308	0	0	0	0	0	0	0	0	0	0
9.97	1.81377	238.83	-30.9675	-0.26003	0.006	-0.408828	0	-0.555442	0	0.963059	191.901	30.5495	-0.252925	0.006	-0.763578	0	0.658128	0	0	0	0	0	0	0	0	0	0
9.98	1.55269	236.14	-30.2091	-0.26012	0.006	-0.408899	0	-0.492013	0	0.875813	193.713	30.8336	-0.252942	0.006	-0.763746	0	0.615057	0	0	0	0	0	0	0	0	0	0
9.99	1.29489	233.998	-29.4651	-0.260213	0.006	-0.408991	0	-0.43166	0	0.827411	196.179	31.2059	-0.253034	0.006	-0.763886	0	0.574144	0	0	0	0	0	0	0	0	0	0
10	1.05385	232.338	-28.7371	-0.260313	0.006	-0.409099	0	-0.374585	0	0.840668	199.197	31.6347	-0.253217	0.006	-0.76399	0	0.535318	0	0	0	0	0	0	0	0	0	0
10.01	0.844094	231.1	-28.029	-0.260421	0.006	-0.409219	0	-0.321261	0	0.938975	202.668	32.0869	-0.253509	0.006	-0.764051	0	0.49847	0	0	0	0	0	0	0	0	0	0
10.02	0.678774	230.235	-27.3478	-0.260538	0.006	-0.409343	0	-0.272322	0	1.14079	206.501	32.5303	-0.253923	0.006	-0.764064	0	0.463536	0	0	0	0	0	0	0	0	0	0
10.03	0.566932	229.717	-26.7042	-0.260663	0.006	-0.409465	0	-0.228414	0	1.45583	210.611	32.9351	-0.254463	0.006	-0.764026	0	0.430551	0	0	0	0	0	0	0	0	0	0
10.04	0.512859	229.549	-26.1118	-0.260795	0.006	-0.40958	0	-0.190113	0	1.88328	214.917	33.2752	-0.255127	0.006	-0.763934	0	0.399602	0	0	0	0	0	0	0	0	0	0
10.05	0.518789	229.761	-25.5861	-0.26094	0.006	-0.409683	0	-0.158005	0	2.41284	219.336	33.529	-0.255901	0.006	-0.763789	0	0.370862	0	0	0	0	0	0	0	0	0	0
10.06	0.587118	230.411	-25.1442	-0.261107	0.006	-0.409773	0	-0.132584	0	3.02738	223.78	33.6808	-0.256767	0.006	-0.763592	0	0.344629	0	0	0	0	0	0	0	0	0	0
10.07	0.719751	231.572	-24.804	-0.261305	0.006	-0.40985	0	-0.11413	0	3.70427	228.16	33.7228	-0.257704	0.006	-0.763348	0	0.321319	0	0	0	0	0	0	0	0	0	0
10.08	0.915262	233.331	-24.582	-0.261539	0.006	-0.40991	0	-0.102733	0	4.41715	232.389	33.6567	-0.258689	0.006	-0.763065	0	0.301585	0	0	0	0	0	0	0	0	0	0
10.09	1.1672	235.766	-24.4918	-0.261808	0.006	-0.409952	0	-0.098426	0	5.13852	236.383	33.493	-0.259699	0.006	-0.762754	0	0.286487	0	0	0	0	0	0	0	0	0	0
10.1	1.46452	238.941	-24.5415	-0.262105	0.006	-0.409974	0	-0.101178	0	5.84047	240.068	33.2505	-0.260712	0.006	-0.762424	0	0.277543	0	0	0	0	0	0	0	0	0	0
10.11	1.79354	242.895	-24.7347	-0.262423	0.006	-0.409977	0	-0.110999	0	6.49566	243.375	32.9534	-0.261701	0.006	-0.762086	0	0.276482	0	0	0	0	0	0	0	0	0	0
10.12	2.13958	247.638	-25.0716	-0.262752	0.006	-0.40996	0	-0.127899	0	7.07874	246.252	32.6286	-0.26264	0.006	-0.761753	0	0.285017	0	0	0	0	0	0	0	0	0	0
10.13	2.48764	253.149	-25.5492	-0.26308	0.006	-0.409924	0	-0.151788	0	7.56537	248.654	32.3024	-0.263501	0.006	-0.761435	0	0.30455	0	0	0	0	0	0	0	0	0	0
10.14	2.82379	259.383	-26.1617	-0.263394	0.006	-0.409871	0	-0.18239	0	7.9337	250.558	31.9972	-0.264258	0.006	-0.761144	0	0.336055	0	0	0	0	0	0	0	0	0	0
10.15	3.13499	266.27	-26.9008	-0.263682	0.006	-0.409801	0	-0.219161	0	8.16682	251.957	31.7297	-0.264888	0.006	-0.760888	0	0.380014	0	0	0	0	0	0	0	0	0	0
